<svg id="Layer_1" data-name="Layer 1" xmlns="http://www.w3.org/2000/svg" xmlns:xlink="http://www.w3.org/1999/xlink" viewBox="0 0 408.79 408.79">
  <defs>
    <style>
      .cls-1 {
        fill: url(#linear-gradient);
      }

      .cls-2 {
        fill: url(#linear-gradient-3);
      }
    </style>
    <linearGradient id="linear-gradient" x1="204.39" y1="453.6" x2="204.39" y2="49.18" gradientTransform="translate(0 -46)" gradientUnits="userSpaceOnUse">
      <stop offset="0" stop-color="#e09b3d"/>
      <stop offset="0.3" stop-color="#c74c4d"/>
      <stop offset="0.6" stop-color="#c21975"/>
      <stop offset="1" stop-color="#7024c4"/>
    </linearGradient>
    <linearGradient id="linear-gradient-3" x1="310.33" y1="453.6" x2="310.33" y2="49.18" xlink:href="#linear-gradient"/>
  </defs>
  <title>instagram</title>
  <g>
    <path class="cls-1" d="M287,0H121.78A121.92,121.92,0,0,0,0,121.78V287A121.92,121.92,0,0,0,121.78,408.79H287A121.92,121.92,0,0,0,408.79,287V121.78A121.92,121.92,0,0,0,287,0Zm80.65,287A80.65,80.65,0,0,1,287,367.66H121.78A80.66,80.66,0,0,1,41.12,287V121.78a80.66,80.66,0,0,1,80.66-80.66H287a80.65,80.65,0,0,1,80.65,80.66V287Z"/>
    <path class="cls-1" d="M204.39,98.67A105.73,105.73,0,1,0,310.12,204.39,105.85,105.85,0,0,0,204.39,98.67Zm0,170.33A64.61,64.61,0,1,1,269,204.39,64.61,64.61,0,0,1,204.39,269Z"/>
    <circle class="cls-2" cx="310.33" cy="99.46" r="25.33"/>
  </g>
</svg>
