<svg id="Layer_1" data-name="Layer 1" xmlns="http://www.w3.org/2000/svg" width="600" height="339.89" viewBox="0 0 600 339.89">
  <defs>
    <style>
      .cls-1 {
        fill: #009245;
      }

      .cls-2 {
        fill: #0071bc;
      }

      .cls-3 {
        fill: #f46b42;
      }

      .cls-4 {
        fill: none;
      }
    </style>
  </defs>
  <title>logo</title>
  <path class="cls-1" d="M0,130.05H181.12v36.43H43.41V278.24H170.64v35.92H43.41V466.34H0Z" transform="translate(0 -130.05)"/>
  <path class="cls-2" d="M144.22,348.09c0-20.54-.36-38.2-1.44-54.41h27.74l1.08,34.23H173c7.93-23.42,27-38.19,48.29-38.19a34.4,34.4,0,0,1,9,1.08v29.91a47.14,47.14,0,0,0-10.81-1.09c-22.34,0-38.2,16.94-42.52,40.72a89.29,89.29,0,0,0-1.44,14.77v93H144.22Z" transform="translate(0 -130.05)"/>
  <path d="M237.94,384.91c.72,42.88,28.1,60.53,59.81,60.53,22.7,0,36.39-4,48.28-9l5.41,22.7c-11.17,5-30.27,10.81-58,10.81-53.69,0-85.76-35.32-85.76-87.92s31-94,81.79-94c56.93,0,72.07,50.09,72.07,82.16a121.72,121.72,0,0,1-1.08,14.77Zm93-22.7c.36-20.18-8.29-51.53-44-51.53-32.07,0-46.12,29.55-48.64,51.53Z" transform="translate(0 -130.05)"/>
  <path class="cls-3" d="M358.31,433.91c9.37,6.13,25.94,12.61,41.8,12.61,23.06,0,33.87-11.53,33.87-25.94,0-15.13-9-23.42-32.43-32.07-31.35-11.17-46.12-28.46-46.12-49.36,0-28.11,22.7-51.17,60.17-51.17,17.66,0,33.15,5,42.88,10.81l-7.93,23.06a67.86,67.86,0,0,0-35.67-10.09c-18.73,0-29.18,10.81-29.18,23.79,0,14.41,10.45,20.89,33.15,29.54,30.26,11.53,45.76,26.67,45.76,52.61,0,30.63-23.78,52.25-65.22,52.25-19.1,0-36.75-4.69-49-11.9Z" transform="translate(0 -130.05)"/>
  <path class="cls-3" d="M451.55,210.51h31.71V319.33H484A58.82,58.82,0,0,1,506.68,297a65.32,65.32,0,0,1,32.43-9C562.53,288,600,302.4,600,362.57V466.34H568.29V366.17c0-28.1-10.45-51.88-40.35-51.88-20.54,0-36.76,14.41-42.52,31.7-1.8,4.33-2.16,9-2.16,15.14V466.34H451.55Z" transform="translate(0 -130.05)"/>
  <line class="cls-4" x1="172.44" y1="197.76" x2="175.91" y2="261.95"/>
  <line class="cls-4" x1="356.33" y1="305.32" x2="342.45" y2="308.78"/>
</svg>
