<svg id="Layer_1" data-name="Layer 1" xmlns="http://www.w3.org/2000/svg" viewBox="0 0 1430.68 227">
  <defs>
    <style>
      .cls-1 {
        fill: #ffe079;
      }
    </style>
  </defs>
  <title>rating</title>
  <polygon class="cls-1" points="119.34 0 156.22 74.72 238.68 86.71 179.01 144.87 193.1 227 119.34 188.22 45.58 227 59.67 144.87 0 86.71 82.46 74.72 119.34 0"/>
  <polygon class="cls-1" points="417.34 0 454.22 74.72 536.68 86.71 477.01 144.87 491.1 227 417.34 188.22 343.58 227 357.67 144.87 298 86.71 380.46 74.72 417.34 0"/>
  <polygon class="cls-1" points="715.34 0 752.22 74.72 834.68 86.71 775.01 144.87 789.1 227 715.34 188.22 641.58 227 655.67 144.87 596 86.71 678.46 74.72 715.34 0"/>
  <polygon class="cls-1" points="1013.34 0 1050.22 74.72 1132.68 86.71 1073.01 144.87 1087.1 227 1013.34 188.22 939.58 227 953.67 144.87 894 86.71 976.46 74.72 1013.34 0"/>
  <polygon class="cls-1" points="1311.34 0 1348.22 74.72 1430.68 86.71 1371.01 144.87 1385.1 227 1311.34 188.22 1237.58 227 1251.67 144.87 1192 86.71 1274.46 74.72 1311.34 0"/>
</svg>
