<svg id="Layer_1" data-name="Layer 1" xmlns="http://www.w3.org/2000/svg" viewBox="0 0 501.71 407.64">
  <defs>
    <style>
      .cls-1 {
        fill: #03a9f4;
      }
    </style>
  </defs>
  <title>twitter</title>
  <path class="cls-1" d="M501.71,48.26A214.48,214.48,0,0,1,442.44,64.5,102.3,102.3,0,0,0,487.69,7.65a205.58,205.58,0,0,1-65.22,24.9,102.85,102.85,0,0,0-177.92,70.33,106.21,106.21,0,0,0,2.38,23.46c-85.51-4.17-161.17-45.16-212-107.59A102.88,102.88,0,0,0,66.54,156.22a101.58,101.58,0,0,1-46.47-12.67v1.13a103.32,103.32,0,0,0,82.4,101.06,102.55,102.55,0,0,1-27,3.39A91,91,0,0,1,56,247.37c13.33,40.73,51.15,70.68,96.11,71.65A206.61,206.61,0,0,1,24.61,362.89,193.5,193.5,0,0,1,0,361.48a289.58,289.58,0,0,0,157.79,46.16c189.26,0,292.74-156.79,292.74-292.69,0-4.54-.16-8.93-.37-13.29A205.38,205.38,0,0,0,501.71,48.26Z"/>
</svg>
